<?xml version="1.0" encoding="utf-8"?>
<!-- Generator: Adobe Illustrator 22.0.0, SVG Export Plug-In . SVG Version: 6.00 Build 0)  -->
<svg version="1.1" id="Layer_1" xmlns="http://www.w3.org/2000/svg" xmlns:xlink="http://www.w3.org/1999/xlink" x="0px" y="0px"
	 viewBox="0 0 448 448" style="enable-background:new 0 0 448 448;" xml:space="preserve">
<style type="text/css">
	.st0{fill:#828282;}
</style>
<path class="st0" d="M0,148V24C0,10.7,10.7,0,24,0h124c6.6,0,12,5.4,12,12v40c0,6.6-5.4,12-12,12H64v84c0,6.6-5.4,12-12,12H12
	C5.4,160,0,154.6,0,148z M288,12v40c0,6.6,5.4,12,12,12h84v84c0,6.6,5.4,12,12,12h40c6.6,0,12-5.4,12-12V24c0-13.3-10.7-24-24-24
	H300C293.4,0,288,5.4,288,12z M436,288h-40c-6.6,0-12,5.4-12,12v84h-84c-6.6,0-12,5.4-12,12v40c0,6.6,5.4,12,12,12h124
	c13.3,0,24-10.7,24-24V300C448,293.4,442.6,288,436,288z M160,436v-40c0-6.6-5.4-12-12-12H64v-84c0-6.6-5.4-12-12-12H12
	c-6.6,0-12,5.4-12,12v124c0,13.3,10.7,24,24,24h124C154.6,448,160,442.6,160,436z"/>
</svg>
