<svg id="Final_look" data-name="Final look" xmlns="http://www.w3.org/2000/svg" viewBox="0 0 125.37 124.34"><defs><style>.cls-1{fill:#199138;}.cls-2{fill:#fff;}</style></defs><title>full screen icon</title><rect class="cls-1" x="10.95" y="12.67" width="102.54" height="100.53"/><path class="cls-1" d="M109.8,118.25H15.57a9.44,9.44,0,0,1-9.43-9.43V15.52a9.44,9.44,0,0,1,9.44-9.43H109.8a9.44,9.44,0,0,1,9.44,9.43v93.3A9.44,9.44,0,0,1,109.8,118.25ZM15.57,13.87a1.65,1.65,0,0,0-1.66,1.65v93.3a1.65,1.65,0,0,0,1.66,1.65H109.8a1.65,1.65,0,0,0,1.66-1.65V15.52a1.65,1.65,0,0,0-1.66-1.65Z"/><polygon class="cls-2" points="42.71 33.08 29.13 46.06 23.62 26.71 42.71 33.08"/><polygon class="cls-2" points="80.92 90.08 95.06 77.7 99.7 97.28 80.92 90.08"/><polygon class="cls-2" points="93.69 45.99 80.46 32.66 99.7 26.79 93.69 45.99"/><polygon class="cls-2" points="30.47 78.36 43.11 92.27 23.62 97.28 30.47 78.36"/><rect class="cls-2" x="61.01" y="22.08" width="2.5" height="81.11" transform="translate(-25.92 67.56) rotate(-48.37)"/><rect class="cls-2" x="21.71" y="61.39" width="81.11" height="2.5" transform="translate(-25.99 59.2) rotate(-42.94)"/></svg>