<svg id="Layer_1" data-name="Layer 1" xmlns="http://www.w3.org/2000/svg" xmlns:xlink="http://www.w3.org/1999/xlink" viewBox="0 0 674.57 157.16"><defs><style>.cls-1,.cls-3{fill:#fff;}.cls-2{clip-path:url(#clip-path);}.cls-3{font-size:58.49px;font-family:Cocogoose;letter-spacing:0.02em;}.cls-4{letter-spacing:-0.02em;}.cls-5{letter-spacing:-0.03em;}.cls-6{letter-spacing:0.02em;}.cls-7{letter-spacing:-0.02em;}</style><clipPath id="clip-path"><path class="cls-1" d="M129.74,64.48a15.66,15.66,0,0,0,11.07-23.43A75.51,75.51,0,1,0,148,102.11,15.64,15.64,0,0,0,132.13,82l-.46,0a15.62,15.62,0,0,0-14.06,10.86,43.75,43.75,0,1,1-4.14-35.61,15.59,15.59,0,0,0,15.81,7.33Z"/></clipPath></defs><title>GCIH Long</title><path class="cls-1" d="M129.74,64.48a15.66,15.66,0,0,0,11.07-23.43A75.51,75.51,0,1,0,148,102.11,15.64,15.64,0,0,0,132.13,82l-.46,0a15.62,15.62,0,0,0-14.06,10.86,43.75,43.75,0,1,1-4.14-35.61,15.59,15.59,0,0,0,15.81,7.33Z"/><path class="cls-1" d="M129.74,64.48a15.66,15.66,0,0,0,11.07-23.43A75.51,75.51,0,1,0,148,102.11,15.64,15.64,0,0,0,132.13,82l-.46,0a15.62,15.62,0,0,0-14.06,10.86,43.75,43.75,0,1,1-4.14-35.61,15.59,15.59,0,0,0,15.81,7.33Z"/><g class="cls-2"><circle class="cls-1" cx="126.63" cy="95.13" r="75.16"/><circle class="cls-1" cx="146.01" cy="115.77" r="75.16"/></g><circle class="cls-1" cx="76.66" cy="77.47" r="22.5"/><text class="cls-3" transform="translate(162.22 45.62)">GEN<tspan class="cls-4" x="134.85" y="0">T</tspan><tspan class="cls-5" x="172.34" y="0">O</tspan><tspan class="cls-6" x="220.15" y="0">WN</tspan><tspan class="cls-7"><tspan x="0" y="54.88">C</tspan><tspan class="cls-6" x="39.8" y="54.88">OMMUNITY &amp; </tspan></tspan><tspan class="cls-6"><tspan x="0" y="109.77">BUSINESS HUB</tspan></tspan></text></svg>