<svg id="Final_look" data-name="Final look" xmlns="http://www.w3.org/2000/svg" viewBox="0 0 614.77 208.12"><defs><style>.cls-1{fill:#229647;}.cls-2{fill:#fff;}</style></defs><title>FSSI LOGO _with right white space</title><rect class="cls-1" x="0.72" y="0.84" width="207.79" height="207.79"/><polygon class="cls-2" points="29.09 75.11 69.15 75.11 69.15 87.63 42.44 87.63 42.44 100.14 67.48 100.14 67.48 110.16 42.44 110.16 42.44 133.52 29.09 133.52 29.09 75.11"/><rect class="cls-2" x="165.95" y="75.11" width="14.19" height="60.08"/><path class="cls-2" d="M108.37,91.8l6.68-9.18a26.86,26.86,0,0,0-10.43-7.09,33.52,33.52,0,0,0-20-.84c-4.18.84-13.36,7.51-12.52,18.36s6.82,13.74,10.85,15c4.34,1.38,13.88,2.87,15.85,4.17,1.56,1,3.34,1.67,2.51,6.68-.84,3.34-3.34,4.17-4.18,4.17v.84l16.5.73s3.53-2.4,2.7-11.58c-.61-6.7-7.51-12.52-15.86-14.19-9.15-1.83-15-3.34-14.18-8.34s5.84-5.84,11.68-4.18A32.76,32.76,0,0,1,108.37,91.8Z"/><path class="cls-2" d="M143,112.24c-1.84-1.47-10.68-2.79-15-4.17-4-1.28-10-4.17-10.85-15s8.35-17.52,12.52-18.36a33.52,33.52,0,0,1,20,.84,26.86,26.86,0,0,1,10.43,7.09l-6.68,9.18A32.76,32.76,0,0,0,143,86.37c-5.84-1.66-11.68-.83-12.51,4.18s5.87,7.35,15,9.18c8.34,1.67,14.18,6.67,15,12.51,1.3,9.09-1.65,13.21-3.34,15.86-5.36,8.4-16.69,15.86-33.38,16.69-20,0-40.06-2.5-60.09-20,6.68-7.51,9.18-10,9.18-10s17.53,15.85,34.22,15.85,30.88,0,37.55-8.34A7.09,7.09,0,0,0,143,112.24Z"/><path class="cls-1" d="M250.72,55.05V14.28h19.54v6.09H257.72V30.88h9.38V37h-9.38V55.05Z"/><path class="cls-1" d="M274.55,14.28h7V45.05c0,3,1.19,4.47,3.73,4.47S289,48.05,289,45.05V14.28h7V44.77c0,7-4.07,10.85-10.73,10.85s-10.73-3.84-10.73-10.85Z"/><path class="cls-1" d="M305.61,20.37h-6.78V14.28h20.56v6.09h-6.78V55.05h-7Z"/><path class="cls-1" d="M322.27,14.28h7V45.05c0,3,1.19,4.47,3.73,4.47s3.73-1.47,3.73-4.47V14.28h7V44.77c0,7-4.07,10.85-10.73,10.85s-10.73-3.84-10.73-10.85Z"/><path class="cls-1" d="M356.27,55.05h-7V14.28h9.83c7.85,0,11.86,3.33,11.86,12,0,6.56-2.54,9.21-4.91,10.28L372,55.05h-7.12l-5-16.89a31.92,31.92,0,0,1-3.61.17Zm0-22.48h2.48c3.79,0,5.2-1.41,5.2-6.27S362.54,20,358.75,20h-2.48Z"/><path class="cls-1" d="M376.26,55.05V14.28H395v6.09H383.26V30.88h9V37h-9V49H395.8v6.1Z"/><path class="cls-1" d="M263.48,70.84c-.28-3.5-2.14-4.52-3.72-4.52-2.26,0-3.51,1.47-3.51,4,0,7,14.24,10.28,14.24,21.35,0,6.72-4.52,10.45-11.07,10.45s-10.23-5.2-10.51-11.3l6.67-1C255.86,94,257.5,96,259.76,96c2.42,0,4.06-1.3,4.06-3.73,0-8.07-14.23-10.22-14.23-21.91,0-6.5,3.95-10.17,10.84-10.17,5.71,0,9.1,4.13,9.72,9.89Z"/><path class="cls-1" d="M274.55,70.67c0-5.76,3.39-10.45,10.73-10.45S296,64.91,296,70.67v21c0,5.76-3.39,10.45-10.73,10.45s-10.73-4.69-10.73-10.45Zm7,20.84c0,3,.91,4.52,3.73,4.52S289,94.56,289,91.51V70.84c0-3-.91-4.52-3.73-4.52s-3.73,1.47-3.73,4.52Z"/><path class="cls-1" d="M315.66,74.4V71.24c0-3.45-1.58-4.92-3.38-4.92-2.83,0-3.73,1.47-3.73,4.52V91.51c0,3,.9,4.52,3.73,4.52,2.54,0,3.38-1.47,3.38-4.12V87h7v4.69c0,5.76-3.39,10.45-10.39,10.45-7.35,0-10.74-4.69-10.74-10.45v-21c0-5.76,3.39-10.45,10.74-10.45,7,0,10.39,5.09,10.39,11.19v3Z"/><path class="cls-1" d="M329.5,101.56V60.79h7v40.77Z"/><path class="cls-1" d="M347.06,101.56h-6.77l7.51-40.77h8.69L364,101.56h-6.78l-1.24-9h-7.68Zm2.26-15.13H355L352.2,68.92h-.11Z"/><path class="cls-1" d="M366.49,101.56V60.79h7V95.46h11v6.1Z"/><path class="cls-1" d="M263.48,117.35c-.28-3.5-2.14-4.52-3.72-4.52-2.26,0-3.51,1.47-3.51,4,0,7,14.24,10.28,14.24,21.35,0,6.72-4.52,10.45-11.07,10.45s-10.23-5.2-10.51-11.29l6.67-1c.28,4.13,1.92,6.16,4.18,6.16,2.42,0,4.06-1.3,4.06-3.73,0-8.07-14.23-10.22-14.23-21.91,0-6.49,3.95-10.16,10.84-10.16,5.71,0,9.1,4.12,9.72,9.88Z"/><path class="cls-1" d="M274.55,148.08V107.3H293.3v6.1H281.55v10.5h9V130h-9v12h12.54v6.1Z"/><path class="cls-1" d="M305.38,148.08h-7V107.3h9.83c7.85,0,11.86,3.33,11.86,12,0,6.55-2.54,9.2-4.91,10.28l5.92,18.47H314l-5-16.89a34.51,34.51,0,0,1-3.62.17Zm0-22.48h2.49c3.78,0,5.2-1.41,5.2-6.27s-1.42-6.27-5.2-6.27h-2.49Z"/><path class="cls-1" d="M338.65,107.3h6.89L337,148.08h-7l-8.53-40.78h6.89l5.08,28.29h.12Z"/><path class="cls-1" d="M349.15,148.08V107.3h7v40.78Z"/><path class="cls-1" d="M376.77,120.91v-3.16c0-3.45-1.58-4.92-3.39-4.92-2.82,0-3.73,1.47-3.73,4.52V138c0,3,.91,4.52,3.73,4.52,2.54,0,3.39-1.47,3.39-4.12V133.5h7v4.69c0,5.76-3.39,10.45-10.39,10.45-7.34,0-10.73-4.69-10.73-10.45v-21c0-5.76,3.39-10.44,10.73-10.44,7,0,10.39,5.08,10.39,11.18v3Z"/><path class="cls-1" d="M389.64,148.08V107.3h18.75v6.1H396.65v10.5h9V130h-9v12h12.53v6.1Z"/><path class="cls-1" d="M251.68,194.59V153.81h7v40.78Z"/><path class="cls-1" d="M265.18,194.59V153.81h6.49l8.53,23.33h.11V153.81h6.33v40.78h-6.1l-8.93-25.47h-.11v25.47Z"/><path class="cls-1" d="M304.94,163.86c-.29-3.5-2.15-4.51-3.73-4.51-2.26,0-3.5,1.47-3.5,4,0,6.94,14.23,10.28,14.23,21.34,0,6.73-4.52,10.45-11.07,10.45s-10.22-5.19-10.51-11.29l6.67-1c.28,4.12,1.92,6.15,4.18,6.15,2.43,0,4.06-1.3,4.06-3.72,0-8.08-14.23-10.23-14.23-21.92,0-6.49,4-10.16,10.85-10.16,5.7,0,9.09,4.12,9.71,9.88Z"/><path class="cls-1" d="M320.07,159.91h-6.78v-6.1h20.56v6.1h-6.78v34.68h-7Z"/><path class="cls-1" d="M337.69,194.59V153.81h7v40.78Z"/><path class="cls-1" d="M355.25,159.91h-6.78v-6.1H369v6.1h-6.78v34.68h-7Z"/><path class="cls-1" d="M371.91,153.81h7v30.78c0,3,1.19,4.46,3.73,4.46s3.73-1.47,3.73-4.46V153.81h7v30.5c0,7-4.07,10.84-10.73,10.84s-10.73-3.84-10.73-10.84Z"/><path class="cls-1" d="M403,159.91h-6.78v-6.1h20.56v6.1H410v34.68h-7Z"/><path class="cls-1" d="M419.63,194.59V153.81h18.75v6.1H426.63v10.51h9v6.1h-9v12h12.54v6.1Z"/></svg>