<?xml version="1.0" encoding="utf-8"?>
<!-- Generator: Adobe Illustrator 22.0.0, SVG Export Plug-In . SVG Version: 6.00 Build 0)  -->
<svg version="1.1" id="Layer_1" xmlns="http://www.w3.org/2000/svg" xmlns:xlink="http://www.w3.org/1999/xlink" x="0px" y="0px"
	 viewBox="0 0 197.9 186.3" style="enable-background:new 0 0 197.9 186.3;" xml:space="preserve">
<style type="text/css">
	.st0{fill:#FFFFFF;}
</style>
<g>
	<path class="st0" d="M2.7,40.5v-39h18.7v5.8h-12v10h9v5.8h-9v17.3H2.7z"/>
	<path class="st0" d="M27.1,1.5h6.7v29.4c0,2.9,1.1,4.3,3.6,4.3s3.6-1.4,3.6-4.3V1.5h6.7v29.2c0,6.7-3.9,10.4-10.3,10.4
		c-6.4,0-10.3-3.7-10.3-10.4V1.5z"/>
	<path class="st0" d="M58.4,7.3h-6.5V1.5h19.7v5.8h-6.5v33.2h-6.7V7.3z"/>
	<path class="st0" d="M75.9,1.5h6.7v29.4c0,2.9,1.1,4.3,3.6,4.3s3.6-1.4,3.6-4.3V1.5h6.7v29.2c0,6.7-3.9,10.4-10.3,10.4
		c-6.4,0-10.3-3.7-10.3-10.4V1.5z"/>
	<path class="st0" d="M109.9,40.5h-6.7v-39h9.4c7.5,0,11.3,3.2,11.3,11.5c0,6.3-2.4,8.8-4.7,9.8l5.7,17.7h-6.8l-4.8-16.1
		c-0.9,0.1-2.3,0.2-3.5,0.2V40.5z M109.9,19h2.4c3.6,0,5-1.4,5-6s-1.4-6-5-6h-2.4V19z"/>
	<path class="st0" d="M130.6,40.5v-39h17.9v5.8h-11.2v10h8.6v5.8h-8.6v11.4h12v5.8H130.6z"/>
	<path class="st0" d="M14.9,59.3C14.7,56,12.9,55,11.4,55C9.2,55,8,56.4,8,58.8c0,6.6,13.6,9.8,13.6,20.4c0,6.4-4.3,10-10.6,10
		c-6.2,0-9.8-5-10-10.8l6.4-0.9c0.3,3.9,1.8,5.9,4,5.9c2.3,0,3.9-1.2,3.9-3.6c0-7.7-13.6-9.8-13.6-21c0-6.2,3.8-9.7,10.4-9.7
		c5.5,0,8.7,3.9,9.3,9.5L14.9,59.3z"/>
	<path class="st0" d="M27.1,59.2c0-5.5,3.2-10,10.3-10c7,0,10.3,4.5,10.3,10v20.1c0,5.5-3.2,10-10.3,10c-7,0-10.3-4.5-10.3-10V59.2z
		 M33.8,79.1c0,2.9,0.9,4.3,3.6,4.3c2.7,0,3.6-1.4,3.6-4.3V59.3c0-2.9-0.9-4.3-3.6-4.3c-2.7,0-3.6,1.4-3.6,4.3V79.1z"/>
	<path class="st0" d="M68,62.7v-3c0-3.3-1.5-4.7-3.2-4.7c-2.7,0-3.6,1.4-3.6,4.3v19.8c0,2.9,0.9,4.3,3.6,4.3c2.4,0,3.2-1.4,3.2-3.9
		v-4.7h6.7v4.5c0,5.5-3.2,10-9.9,10c-7,0-10.3-4.5-10.3-10V59.2c0-5.5,3.2-10,10.3-10c6.7,0,9.9,4.9,9.9,10.7v2.9H68z"/>
	<path class="st0" d="M82.8,88.7v-39h6.7v39H82.8z"/>
	<path class="st0" d="M101.1,88.7h-6.5l7.2-39h8.3l7.2,39h-6.5l-1.2-8.6h-7.3L101.1,88.7z M103.3,74.2h5.4L106,57.5h-0.1L103.3,74.2
		z"/>
	<path class="st0" d="M121.3,88.7v-39h6.7v33.2h10.5v5.8H121.3z"/>
	<path class="st0" d="M14.9,107.5c-0.3-3.3-2.1-4.3-3.6-4.3c-2.2,0-3.3,1.4-3.3,3.8c0,6.6,13.6,9.8,13.6,20.4c0,6.4-4.3,10-10.6,10
		c-6.2,0-9.8-5-10-10.8l6.4-0.9c0.3,3.9,1.8,5.9,4,5.9c2.3,0,3.9-1.2,3.9-3.6c0-7.7-13.6-9.8-13.6-21c0-6.2,3.8-9.7,10.4-9.7
		c5.5,0,8.7,3.9,9.3,9.5L14.9,107.5z"/>
	<path class="st0" d="M27.1,136.9v-39H45v5.8H33.8v10h8.6v5.8h-8.6v11.4h12v5.8H27.1z"/>
	<path class="st0" d="M58.1,136.9h-6.7v-39h9.4c7.5,0,11.3,3.2,11.3,11.5c0,6.3-2.4,8.8-4.7,9.8l5.7,17.7h-6.8l-4.8-16.1
		c-0.9,0.1-2.3,0.2-3.5,0.2V136.9z M58.1,115.4h2.4c3.6,0,5-1.4,5-6c0-4.6-1.3-6-5-6h-2.4V115.4z"/>
	<path class="st0" d="M91.5,97.9h6.6l-8.2,39h-6.7l-8.2-39h6.6l4.9,27.1h0.1L91.5,97.9z"/>
	<path class="st0" d="M103.1,136.9v-39h6.7v39H103.1z"/>
	<path class="st0" d="M131.1,110.9v-3c0-3.3-1.5-4.7-3.2-4.7c-2.7,0-3.6,1.4-3.6,4.3v19.8c0,2.9,0.9,4.3,3.6,4.3
		c2.4,0,3.2-1.4,3.2-3.9V123h6.7v4.5c0,5.5-3.2,10-9.9,10c-7,0-10.3-4.5-10.3-10v-20.1c0-5.5,3.2-10,10.3-10c6.7,0,9.9,4.9,9.9,10.7
		v2.9H131.1z"/>
	<path class="st0" d="M145,136.9v-39h17.9v5.8h-11.2v10h8.6v5.8h-8.6v11.4h12v5.8H145z"/>
	<path class="st0" d="M3.7,185.1v-39h6.7v39H3.7z"/>
	<path class="st0" d="M18.1,185.1v-39h6.2l8.2,22.3h0.1v-22.3h6v39h-5.8l-8.5-24.4h-0.1v24.4H18.1z"/>
	<path class="st0" d="M57.7,155.7c-0.3-3.3-2.1-4.3-3.6-4.3c-2.2,0-3.3,1.4-3.3,3.8c0,6.6,13.6,9.8,13.6,20.4c0,6.4-4.3,10-10.6,10
		c-6.2,0-9.8-5-10-10.8l6.4-0.9c0.3,3.9,1.8,5.9,4,5.9c2.3,0,3.9-1.2,3.9-3.6c0-7.7-13.6-9.8-13.6-21c0-6.2,3.8-9.7,10.4-9.7
		c5.5,0,8.7,3.9,9.3,9.5L57.7,155.7z"/>
	<path class="st0" d="M73.7,151.9h-6.5v-5.8h19.7v5.8h-6.5v33.2h-6.7V151.9z"/>
	<path class="st0" d="M92.2,185.1v-39h6.7v39H92.2z"/>
	<path class="st0" d="M110.5,151.9H104v-5.8h19.7v5.8h-6.5v33.2h-6.7V151.9z"/>
	<path class="st0" d="M128,146.1h6.7v29.4c0,2.9,1.1,4.3,3.6,4.3c2.4,0,3.6-1.4,3.6-4.3v-29.4h6.7v29.2c0,6.7-3.9,10.4-10.3,10.4
		S128,182,128,175.3V146.1z"/>
	<path class="st0" d="M159.3,151.9h-6.5v-5.8h19.7v5.8H166v33.2h-6.7V151.9z"/>
	<path class="st0" d="M176.8,185.1v-39h17.9v5.8h-11.2v10h8.6v5.8h-8.6v11.4h12v5.8H176.8z"/>
</g>
</svg>
