<svg xmlns="http://www.w3.org/2000/svg" xmlns:xlink="http://www.w3.org/1999/xlink" viewBox="0 0 393 266"><defs><style>.cls-1{fill:none;}.cls-2{isolation:isolate;}.cls-3{clip-path:url(#clip-path);}.cls-4{fill:#57753e;mix-blend-mode:multiply;}.cls-5{fill:#fff;}.cls-6{fill:#70b67a;}</style><clipPath id="clip-path"><rect id="SVGID" class="cls-1" x="-2111.24" y="734.1" width="2384.6" height="141.24"/></clipPath></defs><title>flipme_icon</title><g class="cls-2"><g id="Final_look" data-name="Final look"><g class="cls-3"><image width="2560" height="1440" transform="translate(-2109.51 -579.45) scale(0.94 1.02)" xlink:href="../../Work/FSSI/References/all-vcoss_banner BW.jpg"/><polygon class="cls-4" points="363.94 932.99 -2151.55 932.32 -2468.95 -542.68 -70.88 -542.68 363.94 932.99"/></g><path class="cls-5" d="M276.68,239.75,134.29,254.06a6.77,6.77,0,0,1-8.68-6.5V28.27a6.78,6.78,0,0,1,8.6-6.53L276.6,24.66a6.78,6.78,0,0,1,4.95,6.52V233.24A6.78,6.78,0,0,1,276.68,239.75Z"/><path class="cls-6" d="M132.37,258A10.47,10.47,0,0,1,122,247.56V28.27a10.43,10.43,0,0,1,13.25-10l142.13,2.85a10.54,10.54,0,0,1,7.88,10.11V233.24a10.49,10.49,0,0,1-7.5,10l-.17.05L135.15,257.61A9.68,9.68,0,0,1,132.37,258Zm0-232.84a3,3,0,0,0-1.86.61,3.09,3.09,0,0,0-1.24,2.49V247.56a3.13,3.13,0,0,0,4,3l142.45-14.33a3.15,3.15,0,0,0,2.17-3V31.18a3.13,3.13,0,0,0-2.28-3L133.48,25.32A4.55,4.55,0,0,0,132.36,25.17Z"/><path class="cls-6" d="M240.49,215.38l-.64-12.44c84.53-5.65,135-28.07,135-46.5,0-13.55-29.84-32.57-95.36-42.29L281,101.8c31.54,4.68,104.9,19.37,104.9,54.64C385.86,192.78,307.55,210.9,240.49,215.38Z"/><path class="cls-6" d="M157.1,215c-64.81-4.91-140.49-23.2-140.49-58.59,0-36.73,81.9-51.34,107-54.95L125,113.85c-66.94,9.61-97.42,28.82-97.42,42.59,0,17.84,48.72,40,130.25,46.15Z"/><polygon class="cls-6" points="150.06 187.61 150.06 226.58 182.54 207.1 150.06 187.61"/><path class="cls-6" d="M151.56,106.4V58.69h23.8v8.06H160.68v11h11.5v8.06h-11.5V106.4Z"/><path class="cls-6" d="M180.91,106.4V58.69H190V98.34H204.7v8.06Z"/><path class="cls-6" d="M210.78,106.4V58.69h9.12V106.4Z"/><path class="cls-6" d="M229.15,106.4V58.69H242.3q8.46,0,12.59,3.73T259,73q0,6.81-4.13,10.54T242.3,87.24h-4V106.4Zm9.12-26.7h4.89q6.75,0,6.74-6.74t-6.74-6.74h-4.89Z"/><path class="cls-6" d="M166.76,175.05V127.33h12.75l8.27,31.33h.13l8.26-31.33h12.76v47.72h-7.8V137.51H201l-9.72,37.54h-6.87l-9.72-37.54h-.13v37.54Z"/><path class="cls-6" d="M217.65,175.05V127.33h25v8.07H226.77v11h12.1v8.06h-12.1V167h16.52v8.06Z"/></g></g></svg>