<svg id="Final_look" data-name="Final look" xmlns="http://www.w3.org/2000/svg" viewBox="0 0 451 251.66"><defs><style>.cls-1{fill:#229647;}.cls-2{fill:#fff;}</style></defs><title>fssi_logo</title><rect class="cls-1" x="38.97" y="36.48" width="178.7" height="178.7"/><polygon class="cls-2" points="63.37 100.36 97.82 100.36 97.82 111.12 74.85 111.12 74.85 121.89 96.38 121.89 96.38 130.5 74.85 130.5 74.85 150.59 63.37 150.59 63.37 100.36"/><rect class="cls-2" x="181.07" y="100.35" width="12.2" height="51.67"/><path class="cls-2" d="M131.55,114.71l5.74-7.9a23.21,23.21,0,0,0-9-6.1,28.83,28.83,0,0,0-17.23-.71c-3.58.71-11.48,6.45-10.76,15.78s5.87,11.82,9.33,12.92c3.73,1.19,11.94,2.47,13.63,3.59,1.34.88,2.88,1.44,2.16,5.74-.72,2.87-2.87,3.59-3.59,3.59v.72l14.19.63s3-2.07,2.32-10c-.53-5.76-6.46-10.77-13.64-12.2-7.87-1.58-12.92-2.87-12.2-7.18s5-5,10-3.59A28.29,28.29,0,0,1,131.55,114.71Z"/><path class="cls-2" d="M161.33,132.29c-1.58-1.27-9.18-2.4-12.92-3.59-3.46-1.1-8.61-3.59-9.33-12.92s7.18-15.07,10.77-15.78a28.8,28.8,0,0,1,17.22.71,23.11,23.11,0,0,1,9,6.1l-5.74,7.9a28.29,28.29,0,0,0-9-4.67c-5-1.43-10.05-.71-10.76,3.59s5.05,6.32,12.91,7.9c7.18,1.43,12.2,5.74,12.92,10.76,1.12,7.82-1.42,11.36-2.87,13.64-4.61,7.22-14.35,13.63-28.71,14.35-17.22,0-34.44-2.15-51.67-17.22,5.74-6.46,7.9-8.62,7.9-8.62s15.07,13.64,29.42,13.64,26.55,0,32.3-7.18A6.1,6.1,0,0,0,161.33,132.29Z"/><path class="cls-1" d="M254,83.11V48h16.8v5.24H260v9h8.06v5.24H260V83.11Z"/><path class="cls-1" d="M274.46,48h6V74.51c0,2.57,1,3.84,3.21,3.84s3.2-1.27,3.2-3.84V48h6V74.27c0,6-3.5,9.32-9.23,9.32s-9.23-3.3-9.23-9.32Z"/><path class="cls-1" d="M301.17,53.28h-5.83V48H313v5.24h-5.83V83.11h-6Z"/><path class="cls-1" d="M315.5,48h6V74.51c0,2.57,1,3.84,3.21,3.84s3.2-1.27,3.2-3.84V48h6V74.27c0,6-3.49,9.32-9.22,9.32s-9.23-3.3-9.23-9.32Z"/><path class="cls-1" d="M344.74,83.11h-6V48h8.45c6.76,0,10.2,2.86,10.2,10.34,0,5.64-2.18,7.92-4.22,8.84l5.1,15.89h-6.12l-4.28-14.53a28.08,28.08,0,0,1-3.1.15Zm0-19.34h2.13c3.26,0,4.47-1.21,4.47-5.39S350.13,53,346.87,53h-2.13Z"/><path class="cls-1" d="M361.93,83.11V48h16.12v5.24H368v9h7.77v5.24H368v10.3h10.78v5.25Z"/><path class="cls-1" d="M264.94,96.68c-.24-3-1.84-3.88-3.2-3.88-1.95,0-3,1.26-3,3.45,0,6,12.23,8.84,12.23,18.36,0,5.78-3.88,9-9.51,9s-8.8-4.47-9-9.71l5.73-.83c.25,3.55,1.65,5.3,3.6,5.3s3.49-1.12,3.49-3.21c0-7-12.24-8.79-12.24-18.84,0-5.59,3.4-8.75,9.33-8.75,4.91,0,7.82,3.55,8.35,8.5Z"/><path class="cls-1" d="M274.46,96.54c0-5,2.91-9,9.23-9s9.23,4,9.23,9v18.07c0,5-2.92,9-9.23,9s-9.23-4-9.23-9Zm6,17.92c0,2.62.78,3.89,3.21,3.89s3.2-1.27,3.2-3.89V96.68c0-2.62-.77-3.88-3.2-3.88s-3.21,1.26-3.21,3.88Z"/><path class="cls-1" d="M309.82,99.74V97c0-3-1.36-4.22-2.92-4.22-2.43,0-3.2,1.26-3.2,3.88v17.78c0,2.62.77,3.89,3.2,3.89,2.19,0,2.92-1.27,2.92-3.55v-4.23h6v4c0,5-2.91,9-8.94,9-6.31,0-9.23-4-9.23-9V96.54c0-5,2.92-9,9.23-9,6,0,8.94,4.37,8.94,9.62v2.57Z"/><path class="cls-1" d="M321.72,123.11V88h6v35.07Z"/><path class="cls-1" d="M336.82,123.11H331L337.45,88h7.48l6.46,35.07h-5.83l-1.07-7.78h-6.6Zm1.94-13h4.86L341.24,95h-.1Z"/><path class="cls-1" d="M353.53,123.11V88h6v29.82H369v5.25Z"/><path class="cls-1" d="M264.94,136.68c-.24-3-1.84-3.88-3.2-3.88-1.95,0-3,1.26-3,3.45,0,6,12.23,8.84,12.23,18.36,0,5.78-3.88,9-9.51,9s-8.8-4.47-9-9.71l5.73-.83c.25,3.55,1.65,5.3,3.6,5.3s3.49-1.12,3.49-3.21c0-6.95-12.24-8.79-12.24-18.84,0-5.59,3.4-8.75,9.33-8.75,4.91,0,7.82,3.55,8.35,8.5Z"/><path class="cls-1" d="M274.46,163.11V128h16.12v5.24h-10.1v9h7.77v5.24h-7.77v10.3h10.78v5.25Z"/><path class="cls-1" d="M301,163.11h-6V128h8.46c6.75,0,10.2,2.86,10.2,10.34,0,5.64-2.19,7.92-4.23,8.84l5.1,15.89h-6.12l-4.27-14.53a28.27,28.27,0,0,1-3.11.15Zm0-19.34h2.13c3.26,0,4.47-1.21,4.47-5.39s-1.21-5.39-4.47-5.39H301Z"/><path class="cls-1" d="M329.58,128h5.93l-7.33,35.07h-6L314.82,128h5.92l4.38,24.33h.09Z"/><path class="cls-1" d="M338.62,163.11V128h6v35.07Z"/><path class="cls-1" d="M362.37,139.74V137c0-3-1.36-4.22-2.92-4.22-2.43,0-3.2,1.26-3.2,3.88v17.78c0,2.62.77,3.89,3.2,3.89,2.19,0,2.92-1.27,2.92-3.55v-4.23h6v4c0,4.95-2.92,9-8.94,9-6.31,0-9.23-4-9.23-9V136.54c0-5,2.92-9,9.23-9,6,0,8.94,4.37,8.94,9.62v2.57Z"/><path class="cls-1" d="M373.44,163.11V128h16.12v5.24h-10.1v9h7.77v5.24h-7.77v10.3h10.78v5.25Z"/><path class="cls-1" d="M254.79,203.11V168h6v35.07Z"/><path class="cls-1" d="M266.4,203.11V168H272l7.34,20.06h.09V168h5.44v35.07h-5.24l-7.67-21.91h-.1v21.91Z"/><path class="cls-1" d="M300.59,176.68c-.24-3-1.85-3.88-3.2-3.88-1.95,0-3,1.26-3,3.45,0,6,12.24,8.84,12.24,18.36,0,5.78-3.88,9-9.52,9s-8.79-4.47-9-9.71l5.73-.83c.24,3.55,1.65,5.3,3.6,5.3s3.49-1.12,3.49-3.21c0-6.95-12.24-8.79-12.24-18.84,0-5.59,3.4-8.75,9.33-8.75,4.9,0,7.82,3.55,8.35,8.5Z"/><path class="cls-1" d="M313.61,173.28h-5.83V168h17.68v5.24h-5.83v29.83h-6Z"/><path class="cls-1" d="M328.76,203.11V168h6v35.07Z"/><path class="cls-1" d="M343.86,173.28H338V168h17.68v5.24h-5.83v29.83h-6Z"/><path class="cls-1" d="M358.19,168h6v26.47c0,2.57,1,3.84,3.21,3.84s3.2-1.27,3.2-3.84V168h6v26.23c0,6-3.49,9.32-9.22,9.32s-9.23-3.3-9.23-9.32Z"/><path class="cls-1" d="M384.9,173.28h-5.83V168h17.68v5.24h-5.83v29.83h-6Z"/><path class="cls-1" d="M399.23,203.11V168h16.12v5.24h-10.1v9H413v5.24h-7.77v10.3H416v5.25Z"/></svg>