<svg xmlns="http://www.w3.org/2000/svg" xmlns:xlink="http://www.w3.org/1999/xlink" viewBox="0 0 31 30.13"><defs><style>.cls-1{fill:none;}.cls-2{isolation:isolate;}.cls-3{clip-path:url(#clip-path);}.cls-4{fill:#45752e;mix-blend-mode:multiply;}.cls-5{clip-path:url(#clip-path-2);}.cls-6{fill:#188d38;}.cls-7{fill:#fff;}</style><clipPath id="clip-path"><rect class="cls-1" x="137" y="127.13" width="954" height="58"/></clipPath><clipPath id="clip-path-2"><rect class="cls-1" x="137" y="62.13" width="954" height="58"/></clipPath></defs><title>full screen icon</title><g class="cls-2"><g id="Layer_5" data-name="Layer 5"><g class="cls-3"><polygon class="cls-4" points="1126.87 207.58 121.2 207.31 -5.7 -380.53 953.03 -380.53 1126.87 207.58"/></g><g class="cls-5"><polygon class="cls-4" points="1126.87 142.58 121.2 142.31 -5.7 -445.53 953.03 -445.53 1126.87 142.58"/></g><rect class="cls-6" x="2.3" y="2.56" width="26.72" height="25.42"/><path class="cls-6" d="M27.63,29.56H3.94a2.38,2.38,0,0,1-2.37-2.37V3.74A2.38,2.38,0,0,1,3.94,1.36H27.63A2.38,2.38,0,0,1,30,3.74V27.19A2.38,2.38,0,0,1,27.63,29.56ZM3.94,3.32a.42.42,0,0,0-.42.42V27.19a.41.41,0,0,0,.42.41H27.63a.41.41,0,0,0,.41-.41V3.74a.41.41,0,0,0-.41-.42Z"/><polygon class="cls-7" points="10.58 7.88 7.04 11.27 5.6 6.22 10.58 7.88"/><polygon class="cls-7" points="20.54 22.73 24.22 19.51 25.43 24.61 20.54 22.73"/><polygon class="cls-7" points="23.86 11.24 20.41 7.77 25.43 6.24 23.86 11.24"/><polygon class="cls-7" points="7.39 19.68 10.68 23.3 5.6 24.61 7.39 19.68"/><rect class="cls-7" x="15.35" y="5.01" width="0.65" height="21.14" transform="translate(-6.39 16.95) rotate(-48.37)"/><rect class="cls-7" x="5.11" y="15.26" width="21.14" height="0.65" transform="translate(-6.42 14.85) rotate(-42.94)"/></g></g></svg>