<svg xmlns="http://www.w3.org/2000/svg" xmlns:xlink="http://www.w3.org/1999/xlink" viewBox="0 0 31 30.13"><defs><style>.cls-1{fill:none;}.cls-2{isolation:isolate;}.cls-3{fill:#188d38;}.cls-4{clip-path:url(#clip-path);}.cls-5{fill:#45752e;mix-blend-mode:multiply;}.cls-6{clip-path:url(#clip-path-2);}.cls-7{fill:#fff;}</style><clipPath id="clip-path"><rect class="cls-1" x="87" y="127.13" width="954" height="58"/></clipPath><clipPath id="clip-path-2"><rect class="cls-1" x="87" y="62.13" width="954" height="58"/></clipPath></defs><title>Nav- icon</title><g class="cls-2"><g id="Layer_5" data-name="Layer 5"><path class="cls-3" d="M27.3,29.56H3.61a2.38,2.38,0,0,1-2.37-2.37V3.74A2.38,2.38,0,0,1,3.61,1.36H27.3a2.38,2.38,0,0,1,2.37,2.38V27.19A2.38,2.38,0,0,1,27.3,29.56Z"/><g class="cls-4"><polygon class="cls-5" points="1076.87 207.58 71.2 207.31 -55.7 -380.53 903.03 -380.53 1076.87 207.58"/></g><g class="cls-6"><polygon class="cls-5" points="1076.87 142.58 71.2 142.31 -55.7 -445.53 903.03 -445.53 1076.87 142.58"/></g><rect class="cls-7" x="5.15" y="8.78" width="20.54" height="2.32" rx="0.55" ry="0.55"/><rect class="cls-7" x="5.15" y="14.3" width="20.54" height="2.32" rx="0.55" ry="0.55"/><rect class="cls-7" x="5.22" y="19.82" width="20.54" height="2.32" rx="0.55" ry="0.55"/></g></g></svg>