<svg xmlns="http://www.w3.org/2000/svg" viewBox="0 0 115 90"><defs><style>.cls-1{fill:#3ba96a;}.cls-2{fill:#fff;}</style></defs><title>Icon_activities soild color copy</title><g id="Layer_5" data-name="Layer 5"><rect class="cls-1" x="8.39" y="15.07" width="97.76" height="62.46"/><path class="cls-2" d="M22.14,21.06c6.05.35,18.09,1.62,25.52,6.26a1.75,1.75,0,0,1,.8,1.49v41a1.75,1.75,0,0,1-2.57,1.52c-7.65-3.92-18.7-5-24.17-5.29A3.48,3.48,0,0,1,18.4,62.6V24.52A3.49,3.49,0,0,1,22.14,21.06ZM52.8,27.32c7.42-4.64,19.46-5.91,25.51-6.26a3.49,3.49,0,0,1,3.74,3.46V62.6a3.49,3.49,0,0,1-3.32,3.46c-5.47.29-16.53,1.36-24.17,5.29A1.75,1.75,0,0,1,52,69.83v-41A1.71,1.71,0,0,1,52.8,27.32Z"/><path class="cls-2" d="M97.31,63.67,94.44,70a.38.38,0,0,1-.34.28h-.67a.4.4,0,0,1-.34-.29l-2.77-6.36a5.24,5.24,0,0,1-.4-2L90,28.92l7.82,0L97.74,61.6A5.1,5.1,0,0,1,97.31,63.67Z"/><rect class="cls-2" x="91.58" y="20.8" width="4.77" height="7.82" transform="translate(68.9 118.58) rotate(-89.79)"/><polygon class="cls-2" points="92.86 63.98 93.88 64.05 94 30.88 92.98 30.8 92.86 63.98"/></g></svg>