<svg xmlns="http://www.w3.org/2000/svg" xmlns:xlink="http://www.w3.org/1999/xlink" viewBox="0 0 115 90"><defs><style>.cls-1{fill:none;}.cls-2{clip-path:url(#clip-path);}.cls-3{fill:#3ba96a;}</style><clipPath id="clip-path"><path id="SVGID" class="cls-1" d="M29.18,47.06a13,13,0,0,1,5.32-3.18c2.81-.79,35.45-.59,43-.44a9.78,9.78,0,0,1,2.29.46s3.29.9,4.73,3.39c2.83-1.85,2-2,2-2L86.09,17.7,60.31,18l-30.72,1.4L27.93,34.44l.91,14.32Z"/></clipPath></defs><title>Icon_objectives line copy</title><g id="Layer_5" data-name="Layer 5"><g class="cls-2"><path class="cls-3" d="M83.68,47.17h-3.9V28.32c0-1-.61-1.87-1.37-1.87H35.88c-.76,0-1.37.84-1.37,1.87V47.06H30.61v-19c0-3.53,2.36-6.4,5.27-6.4H78.41c2.9,0,5.27,2.87,5.27,6.4Z"/></g><circle class="cls-3" cx="35.93" cy="51.1" r="5.81"/><path class="cls-3" d="M32.76,57.82H39.1a4.49,4.49,0,0,1,4.49,4.49v3.57a2.51,2.51,0,0,1-2.51,2.51H30.78a2.51,2.51,0,0,1-2.51-2.51V62.31a4.49,4.49,0,0,1,4.49-4.49Z"/><circle class="cls-3" cx="58.28" cy="51.1" r="5.81"/><path class="cls-3" d="M55.11,57.82h6.34a4.49,4.49,0,0,1,4.49,4.49v3.57a2.51,2.51,0,0,1-2.51,2.51H53.12a2.51,2.51,0,0,1-2.51-2.51V62.31a4.49,4.49,0,0,1,4.49-4.49Z"/><circle class="cls-3" cx="78.28" cy="51.1" r="5.81"/><path class="cls-3" d="M75.11,57.82h6.34a4.49,4.49,0,0,1,4.49,4.49v3.57a2.51,2.51,0,0,1-2.51,2.51H73.13a2.51,2.51,0,0,1-2.51-2.51V62.31A4.49,4.49,0,0,1,75.11,57.82Z"/></g></svg>