<svg xmlns="http://www.w3.org/2000/svg" xmlns:xlink="http://www.w3.org/1999/xlink" viewBox="0 0 115 90"><defs><style>.cls-1{fill:none;}.cls-2{fill:#3ba96a;}.cls-3{clip-path:url(#clip-path);}.cls-4{fill:#fff;}</style><clipPath id="clip-path"><path class="cls-1" d="M29.18,50.32a13,13,0,0,1,5.32-3.18c2.81-.79,35.45-.6,43-.44a9.78,9.78,0,0,1,2.29.46s3.29.9,4.73,3.39c2.83-1.85,2-2,2-2L86.09,21l-25.78.26-30.72,1.4L27.93,37.7,28.84,52Z"/></clipPath></defs><title>Icon_objective soild color copy</title><g id="Layer_5" data-name="Layer 5"><rect class="cls-2" x="8.39" y="15.07" width="97.76" height="62.46"/><g class="cls-3"><path class="cls-4" d="M83.68,50.43h-3.9V31.58c0-1-.61-1.87-1.37-1.87H35.88c-.76,0-1.37.84-1.37,1.87V50.32H30.61v-19c0-3.53,2.36-6.4,5.27-6.4H78.41c2.9,0,5.27,2.87,5.27,6.4Z"/></g><circle class="cls-4" cx="35.93" cy="54.36" r="5.81"/><path class="cls-4" d="M32.76,61.08H39.1a4.49,4.49,0,0,1,4.49,4.49v3.57a2.51,2.51,0,0,1-2.51,2.51H30.78a2.51,2.51,0,0,1-2.51-2.51V65.57a4.49,4.49,0,0,1,4.49-4.49Z"/><circle class="cls-4" cx="58.28" cy="54.36" r="5.81"/><path class="cls-4" d="M55.11,61.08h6.34a4.49,4.49,0,0,1,4.49,4.49v3.57a2.51,2.51,0,0,1-2.51,2.51H53.12a2.51,2.51,0,0,1-2.51-2.51V65.57a4.49,4.49,0,0,1,4.49-4.49Z"/><circle class="cls-4" cx="78.28" cy="54.36" r="5.81"/><path class="cls-4" d="M75.11,61.08h6.34a4.49,4.49,0,0,1,4.49,4.49v3.57a2.51,2.51,0,0,1-2.51,2.51H73.13a2.51,2.51,0,0,1-2.51-2.51V65.57a4.49,4.49,0,0,1,4.49-4.49Z"/></g></svg>