<svg xmlns="http://www.w3.org/2000/svg" viewBox="0 0 115 90"><defs><style>.cls-1{fill:none;stroke:#3ba96a;stroke-miterlimit:10;stroke-width:2px;}</style></defs><title>Icon_assessment line copy</title><g id="Layer_5" data-name="Layer 5"><path class="cls-1" d="M98.68,30.38,64.32,19.82a9.91,9.91,0,0,0-5.76,0L24.2,30.38a2.9,2.9,0,0,0,0,5.61l6,1.85A9.65,9.65,0,0,0,28,43.61,3.91,3.91,0,0,0,26,47a3.86,3.86,0,0,0,1.71,3.16L24.52,64.29a2,2,0,0,0,1.93,2.4h6.91a2,2,0,0,0,1.92-2.4L32.14,50.14A3.86,3.86,0,0,0,33.85,47a3.91,3.91,0,0,0-1.93-3.31,5.82,5.82,0,0,1,2.54-4.52l24.1,7.4a9.77,9.77,0,0,0,5.76,0L98.68,36a2.9,2.9,0,0,0,0-5.62ZM65.48,50.32a13.8,13.8,0,0,1-8.08,0L39.53,44.83l-1.74,14c0,4.35,10.59,7.88,23.65,7.88s23.65-3.53,23.65-7.88l-1.75-14Z"/></g></svg>