<svg xmlns="http://www.w3.org/2000/svg" viewBox="0 0 115 90"><defs><style>.cls-1{fill:#3ba96a;}.cls-2{fill:#fff;}</style></defs><title>Icon_assessment soild color copy</title><g id="Layer_5" data-name="Layer 5"><rect class="cls-1" x="6.44" y="15.07" width="101.99" height="62.46"/><path class="cls-2" d="M96.68,33.64,62.32,23.08a9.91,9.91,0,0,0-5.76,0L22.2,33.64a2.9,2.9,0,0,0,0,5.61l6,1.84A9.7,9.7,0,0,0,26,46.87a3.91,3.91,0,0,0-2,3.37,3.86,3.86,0,0,0,1.71,3.16L22.52,67.55A2,2,0,0,0,24.45,70h6.91a2,2,0,0,0,1.92-2.4L30.14,53.4a3.86,3.86,0,0,0,1.71-3.16,3.91,3.91,0,0,0-1.93-3.31,5.82,5.82,0,0,1,2.54-4.52l24.1,7.4a9.85,9.85,0,0,0,5.76,0L96.68,39.26a2.9,2.9,0,0,0,0-5.62ZM63.48,53.58a13.8,13.8,0,0,1-8.08,0L37.53,48.09l-1.74,14c0,4.35,10.59,7.88,23.65,7.88s23.65-3.53,23.65-7.88l-1.75-14Z"/></g></svg>