<svg xmlns="http://www.w3.org/2000/svg" viewBox="0 0 115 90"><defs><style>.cls-1{fill:none;stroke:#3ba96a;stroke-miterlimit:10;stroke-width:2px;}</style></defs><title>Icon_activities line copy</title><g id="Layer_5" data-name="Layer 5"><path class="cls-1" d="M23.14,17.8c6.05.35,18.09,1.63,25.52,6.27a1.73,1.73,0,0,1,.8,1.48v41a1.74,1.74,0,0,1-2.57,1.52c-7.65-3.92-18.7-5-24.17-5.28a3.49,3.49,0,0,1-3.32-3.46V21.26A3.49,3.49,0,0,1,23.14,17.8ZM53.8,24.07c7.42-4.64,19.46-5.92,25.51-6.27a3.49,3.49,0,0,1,3.74,3.46V59.34a3.49,3.49,0,0,1-3.32,3.46c-5.47.29-16.53,1.36-24.17,5.29A1.75,1.75,0,0,1,53,66.57v-41A1.68,1.68,0,0,1,53.8,24.07Z"/><path class="cls-1" d="M98.31,60.41l-2.87,6.34a.38.38,0,0,1-.34.28h-.67a.4.4,0,0,1-.34-.29l-2.77-6.36a5.2,5.2,0,0,1-.4-2.05L91,25.67l7.82,0-.12,32.65A5.1,5.1,0,0,1,98.31,60.41Z"/><polygon class="cls-1" points="98.86 22.36 91.04 22.33 91.06 19.05 98.88 19.08 98.86 22.36"/></g></svg>