<svg xmlns="http://www.w3.org/2000/svg" xmlns:xlink="http://www.w3.org/1999/xlink" viewBox="0 0 145.88 57.88"><defs><style>.cls-1{fill:none;}.cls-2{isolation:isolate;}.cls-3{clip-path:url(#clip-path);}.cls-4{fill:#45752e;mix-blend-mode:multiply;}.cls-5,.cls-7{fill:#178a38;}.cls-6{fill:#fff;}.cls-7{font-size:15.64px;font-family:TradeGothicLTPro-BdCn20, Trade Gothic LT Pro;font-weight:700;letter-spacing:0.02em;}.cls-8{letter-spacing:0em;}.cls-9{letter-spacing:0.02em;}.cls-10{clip-path:url(#clip-path-2);}</style><clipPath id="clip-path"><rect class="cls-1" x="145.88" y="64.88" width="954" height="58"/></clipPath><clipPath id="clip-path-2"><rect class="cls-1" x="145.88" y="-0.13" width="954" height="58"/></clipPath></defs><title>top nav logo</title><g class="cls-2"><g id="Layer_5" data-name="Layer 5"><g class="cls-3"><polygon class="cls-4" points="1135.74 145.33 130.07 145.06 3.18 -442.78 961.91 -442.78 1135.74 145.33"/></g><rect class="cls-5" x="0.38" y="-0.23" width="57.54" height="58.1"/><polygon class="cls-6" points="8.24 20.34 19.33 20.34 19.33 23.8 11.93 23.8 11.93 27.27 18.87 27.27 18.87 30.04 11.93 30.04 11.93 36.51 8.24 36.51 8.24 20.34"/><rect class="cls-6" x="46.13" y="20.34" width="3.93" height="16.64"/><path class="cls-6" d="M30.19,25,32,22.42a7.5,7.5,0,0,0-2.89-2,9.29,9.29,0,0,0-5.55-.23,5,5,0,0,0-3.46,5.08c.23,3,1.89,3.81,3,4.16s3.85.8,4.39,1.16.93.46.69,1.85a1.38,1.38,0,0,1-1.15,1.15v.23l4.57.21s1-.67.74-3.21C32.22,29,30.3,27.38,28,26.92c-2.53-.5-4.16-.92-3.92-2.31S25.68,23,27.3,23.46A9,9,0,0,1,30.19,25Z"/><path class="cls-6" d="M39.78,30.62c-.51-.41-3-.77-4.16-1.16s-2.77-1.15-3-4.16a5,5,0,0,1,3.47-5.08,9.29,9.29,0,0,1,5.55.23,7.5,7.5,0,0,1,2.89,2L42.67,25a9,9,0,0,0-2.89-1.5c-1.62-.47-3.24-.24-3.47,1.15s1.63,2,4.16,2.54c2.31.47,3.93,1.85,4.16,3.47A5.58,5.58,0,0,1,43.71,35c-1.49,2.32-4.63,4.39-9.25,4.62-5.54,0-11.09-.69-16.63-5.54,1.84-2.08,2.54-2.78,2.54-2.78s4.85,4.39,9.47,4.39,8.55,0,10.4-2.31A2,2,0,0,0,39.78,30.62Z"/><text class="cls-7" transform="translate(64.16 13.49)">FUTURE<tspan x="0" y="14.16">SOCIAL </tspan><tspan x="0" y="28.32">SE</tspan><tspan class="cls-8" x="14.39" y="28.32">R</tspan><tspan x="22.17" y="28.32">VICE</tspan><tspan class="cls-9"><tspan x="0" y="42.49">INSTITUTE</tspan></tspan></text><g class="cls-10"><polygon class="cls-4" points="1135.74 80.33 130.07 80.06 3.18 -507.78 961.91 -507.78 1135.74 80.33"/></g></g></g></svg>