<?xml version="1.0" encoding="utf-8"?>
<!-- Generator: Adobe Illustrator 23.0.1, SVG Export Plug-In . SVG Version: 6.00 Build 0)  -->
<svg version="1.1" id="Final_look" xmlns="http://www.w3.org/2000/svg" xmlns:xlink="http://www.w3.org/1999/xlink" x="0px" y="0px"
	 viewBox="0 0 125.4 124.3" style="enable-background:new 0 0 125.4 124.3;" xml:space="preserve">
<style type="text/css">
	.st0{fill:#209847;}
	.st1{fill:#FFFFFF;}
</style>
<title>fullscreen_icon</title>
<rect x="5.3" y="7.3" class="st0" width="113.7" height="111.4"/>
<path class="st0" d="M114.9,124.3H10.5c-5.8,0-10.4-4.7-10.5-10.5V10.5C0,4.7,4.7,0,10.5,0h104.4c5.8,0,10.5,4.7,10.5,10.5v103.4
	C125.4,119.7,120.7,124.3,114.9,124.3z M10.5,8.6c-1,0-1.8,0.8-1.8,1.8c0,0,0,0,0,0v103.4c0,1,0.8,1.8,1.8,1.8c0,0,0,0,0,0h104.5
	c1,0,1.8-0.8,1.8-1.8c0,0,0,0,0,0V10.5c0-1-0.8-1.8-1.8-1.8c0,0,0,0,0,0L10.5,8.6z"/>
<polygon class="st1" points="40.5,29.9 25.5,44.3 19.4,22.9 "/>
<polygon class="st1" points="82.9,93.1 98.6,79.4 103.7,101.1 "/>
<polygon class="st1" points="97,44.2 82.4,29.5 103.7,22.9 "/>
<polygon class="st1" points="27,80.1 41,95.5 19.4,101.1 "/>
<rect x="60.8" y="17.7" transform="matrix(0.6643 -0.7475 0.7475 0.6643 -25.968 67.5352)" class="st1" width="2.8" height="89.9"/>
<rect x="17.3" y="61.3" transform="matrix(0.7321 -0.6812 0.6812 0.7321 -26.0346 59.1773)" class="st1" width="89.9" height="2.8"/>
</svg>
