<?xml version="1.0" encoding="utf-8"?>
<!-- Generator: Adobe Illustrator 23.0.1, SVG Export Plug-In . SVG Version: 6.00 Build 0)  -->
<svg version="1.1" id="Final_look" xmlns="http://www.w3.org/2000/svg" xmlns:xlink="http://www.w3.org/1999/xlink" x="0px" y="0px"
	 viewBox="0 0 125.4 124.3" style="enable-background:new 0 0 125.4 124.3;" xml:space="preserve">
<style type="text/css">
	.st0{fill:#209847;}
	.st1{fill:#FFFFFF;}
</style>
<title>Navgation_icon</title>
<path class="st0" d="M10.8,0h103.7c6,0,10.8,4.9,10.8,10.8v102.6c0,6-4.9,10.8-10.8,10.8H10.8c-6,0-10.8-4.9-10.8-10.8V10.9
	C0,4.9,4.9,0,10.8,0z"/>
<path class="st1" d="M19.1,32.4h87.2c0.3,0,0.6,0.3,0.6,0.6v8.8c0,0.3-0.3,0.6-0.6,0.6H19.1c-0.3,0-0.6-0.3-0.6-0.6v-8.8
	C18.5,32.7,18.8,32.4,19.1,32.4z"/>
<path class="st1" d="M19.1,56.2h87.2c0.3,0,0.6,0.3,0.6,0.6v8.8c0,0.3-0.3,0.6-0.6,0.6H19.1c-0.3,0-0.6-0.3-0.6-0.6v-8.8
	C18.5,56.5,18.8,56.2,19.1,56.2z"/>
<path class="st1" d="M19.1,79.9h87.2c0.3,0,0.6,0.3,0.6,0.6v8.8c0,0.3-0.3,0.6-0.6,0.6H19.1c-0.3,0-0.6-0.3-0.6-0.6v-8.8
	C18.5,80.2,18.8,79.9,19.1,79.9z"/>
</svg>
