<svg xmlns="http://www.w3.org/2000/svg" xmlns:xlink="http://www.w3.org/1999/xlink" width="23" height="23" viewBox="0 0 23 23">
  <defs>
    <clipPath id="clip-share">
      <rect width="23" height="23"/>
    </clipPath>
  </defs>
  <g id="share" clip-path="url(#clip-share)">
    <g id="noun_Refresh_11551" transform="translate(0 3)">
      <path id="Path_137" data-name="Path 137" d="M12.209,22.581a.873.873,0,0,0-1.235-.016L9.883,23.628a.968.968,0,0,1-.149.145,7.093,7.093,0,0,1,12.737-3.821.778.778,0,1,0,1.24-.939A8.653,8.653,0,0,0,8.17,23.772a.355.355,0,0,1-.051-.064L6.955,22.513A.874.874,0,1,0,5.7,23.734L8.3,26.394a.873.873,0,0,0,1.235.015l2.661-2.593A.874.874,0,0,0,12.209,22.581ZM8.974,24.943l.031,0A.018.018,0,0,1,8.974,24.943Z" transform="translate(-5.456 -15.58)" fill="#888"/>
      <path id="Path_138" data-name="Path 138" d="M39.993,43.781,37.4,41.121a.873.873,0,0,0-1.235-.015L33.5,43.7a.874.874,0,0,0,1.219,1.252l1.092-1.063a.859.859,0,0,1,.135-.133,7.094,7.094,0,0,1-12.734,3.767.778.778,0,1,0-1.24.939,8.652,8.652,0,0,0,15.538-4.731.392.392,0,0,1,.064.078L38.742,45a.874.874,0,1,0,1.251-1.221Z" transform="translate(-17.673 -34.454)" fill="#888"/>
    </g>
  </g>
</svg>
